<svg xmlns="http://www.w3.org/2000/svg" viewBox="300 250 400 400" xml:space="preserve">
  <path fill="gray" d="M534.119 629.1c-3.052 3.98-5.867 7.696-8.758 11.352-1.315 1.663-2.505 3.869-5.102 3.327-2.486-.52-3.038-2.8-3.634-4.924-4.988-17.776-9.996-35.546-14.99-53.32-2.113-7.525-3.941-15.143-6.395-22.555-1.828-5.519-1.433-10.579.298-16.041 7.098-22.404 19.428-41.863 33.179-60.606 13.303-18.132 26.578-36.328 34.648-57.593 5.652-14.893 8.98-30.268 8.476-46.324-.082-2.63-.48-5.635 2.748-6.818 2.854-1.045 4.643 1.076 6.422 2.836 23.089 22.85 35.404 50.614 38.427 82.854 2.485 26.505-3.284 51.255-14.931 74.812-5.341 10.802-13.33 19.895-20.66 29.361-16.412 21.192-33.004 42.242-49.728 63.639M589 526.47c2.476 1.825 4.289 4.587 7.363 5.567 24.697-34.996 17-116.327-12.836-137.228 1.43 13.482.999 26.915-.635 40.31-2.777 22.787-9.285 44.56-18.259 65.622-1.124 2.64-.536 4.208 1.551 5.973 7.501 6.343 14.864 12.85 22.816 19.756m-46.799 52.041-10.96 39.589c20.203-24.45 39.352-49.405 58.617-74.27 2.067-2.668 1.468-4.33-.776-6.263-8.207-7.064-16.338-14.215-24.542-21.283-1.072-.924-1.905-2.399-4.113-2.19-6.874 20.88-11.958 42.4-18.225 64.418m-33.32 2.268 11.348 41.086 1.438-.008 28.523-103.617c-16.053 11.996-31.079 24.565-46.155 37.072-1.874 1.554-1.208 3.238-.744 4.977 1.756 6.58 3.548 13.15 5.59 20.49m3.826-53.613c-2.19 4.435-4.259 8.916-6.13 15.138 16.564-13.781 32.029-26.617 47.427-39.531.957-.803 1.522-2.168 2.053-3.367a263 263 0 0 0 11.132-29.934c4.903-16.092 7.526-32.533 8.225-49.343-6.834 22.664-19.345 42.237-32.833 61.295-10.383 14.673-21.437 28.91-29.874 45.742"/>
  <path fill="#6495ed" d="M506.757 268.115c23.69 20.263 35.409 45.996 36.182 76.483.682 26.887-8.395 51-23.507 72.95-11.537 16.76-25.124 31.943-37.362 48.162-12.397 16.43-23.54 33.614-28.023 54.137-4.303 19.698-2.039 38.715 6.607 56.953.64 1.351 1.335 2.698 1.768 4.12.541 1.777-.089 3.265-1.652 4.325-1.419.963-2.817.874-4.179-.09a22 22 0 0 1-1.965-1.538c-24.9-22.246-39.248-49.443-40.09-83.383-.718-28.895 10.236-53.54 26.353-76.514 12.735-18.153 27.78-34.53 40.51-52.692 15.707-22.411 25.933-46.506 23.317-74.618-.73-7.838-2.592-15.396-5.76-22.634-1.13-2.581-3.76-5.37-.302-8.015 3.33-2.546 5.463.464 8.103 2.354m-63.078 272.35c-.423-8.056.855-15.926 2.698-23.717 4.734-20.015 15.037-37.23 27.055-53.575 12.73-17.311 27.348-33.165 39.365-51.027 17.484-25.986 26.48-53.987 19.847-85.516-3.194-15.182-9.396-28.99-20.689-41.367.306 2.878.467 4.788.717 6.686 1.113 8.464 1.21 16.978.058 25.393-3.515 25.688-15.687 47.49-31.124 67.74-13.221 17.341-27.943 33.552-39.564 52.1-20.105 32.09-26.664 65.676-10.795 101.602 3.791 8.584 8.607 16.527 15.552 24.554-1.9-8.041-3.175-14.881-3.12-22.873"/>
</svg>
